FILE "Jampack Summer 2K.bin" BINARY
  TRACK 01 MODE2/2352
    INDEX 01 00:00:00
  TRACK 02 AUDIO
    PREGAP 00:02:00
    INDEX 01 60:00:53
  TRACK 03 AUDIO
    INDEX 00 63:17:53
    INDEX 01 63:19:53
